<?xml version="1.0" encoding="UTF-8"?>
<svg id="_레이어_2" data-name="레이어 2" xmlns="http://www.w3.org/2000/svg" viewBox="0 0 986.32 267.67">
  <defs>
    <style>
      .cls-1 {
        fill: #00a2ff;
      }
    </style>
  </defs>
  <g id="_레이어_1-2" data-name="레이어 1">
    <path class="cls-1" d="M688.14,42.16l-35.43-5.16-15.83-32c-.76-1.53-2.62-2.16-4.16-1.39-.6,.3-1.09,.79-1.39,1.39l-15.83,32-35.43,5.12c-1.68,.24-2.86,1.79-2.62,3.48,.09,.68,.41,1.31,.9,1.78l25.65,24.92-6.07,35.14c-.29,1.69,.85,3.29,2.54,3.57,.67,.11,1.36,0,1.96-.31l31.68-16.61,31.68,16.61c.44,.24,.94,.36,1.44,.35,.65,0,1.29-.21,1.82-.59,.95-.68,1.42-1.85,1.23-3l-6.06-35.16,25.64-24.88c1.22-1.19,1.25-3.13,.06-4.36-.48-.49-1.11-.81-1.78-.9Zm-29.42,26.84c-.73,.71-1.06,1.74-.89,2.74l5.28,30.57-27.56-14.44c-.91-.47-1.98-.47-2.89,0l-27.56,14.45,5.28-30.57c.17-1-.16-2.03-.89-2.74l-22.32-21.64,30.83-4.45c1.01-.15,1.88-.78,2.33-1.69l13.78-27.83,13.77,27.83c.45,.91,1.32,1.54,2.33,1.69l30.79,4.45-22.28,21.63Z"/>
    <path class="cls-1" d="M636.66,26.7c-.7-1.41-2.41-1.98-3.82-1.28-.55,.28-1,.72-1.28,1.28l-9.45,19.08-21.11,3.06c-1.55,.22-2.62,1.66-2.4,3.2,.09,.62,.38,1.19,.83,1.63l15.3,14.84-3.62,21c-.27,1.54,.76,3.02,2.3,3.29,.62,.11,1.27,0,1.83-.29l18.91-9.91,18.85,9.87c.41,.22,.86,.33,1.32,.33,1.56,.01,2.84-1.25,2.85-2.81,0-.17-.01-.34-.04-.5l-3.62-21,15.3-14.84c1.12-1.09,1.14-2.88,.05-4-.44-.45-1.01-.74-1.63-.83l-21.13-3.04-9.44-19.08Zm11.82,38.8c-.67,.65-.98,1.59-.82,2.51l2.89,16.77-15.12-7.93c-.83-.43-1.82-.43-2.65,0l-15.13,7.93,2.9-16.78c.16-.92-.14-1.86-.81-2.51l-12.25-11.87,16.91-2.44c.93-.14,1.73-.72,2.15-1.55l7.56-15.27,7.55,15.27c.42,.83,1.22,1.41,2.14,1.55l16.92,2.44-12.24,11.88Z"/>
    <path class="cls-1" d="M81.26,202.57v-44.71c0-1.27-.67-2.45-1.77-3.09-1.1-.63-2.45-.63-3.55,0l-19.14,10.92-18.3-10.91c-1.1-.64-2.47-.64-3.57,0-1.11,.64-1.8,1.83-1.8,3.11v44.71c-15.41,13.29-17.13,36.56-3.84,51.97,13.29,15.41,36.56,17.13,51.97,3.84,15.41-13.29,17.13-36.56,3.84-51.97-1.18-1.37-2.47-2.66-3.84-3.84v-.03Zm-7.12-4.86c-2.21-1.16-4.52-2.09-6.92-2.77v-27.63l6.92-3.3v33.7Zm-15.62-26.26l1.58-.76v23c-1-.07-1.93-.12-2.91-.12s-2.17,.06-3.24,.15v-22.79l1,.49c1.1,.65,2.46,.66,3.57,.03Zm-18.27-7.31l6.59,3.26v27.6c-2.28,.67-4.49,1.57-6.59,2.67v-33.53Zm16.94,96.37c-16.52,.09-29.99-13.22-30.08-29.74s13.22-29.99,29.74-30.08,29.99,13.22,30.08,29.74c0,.06,0,.11,0,.17,.03,16.47-13.27,29.85-29.74,29.91Z"/>
    <path class="cls-1" d="M54.91,213.18l-11.36,32.58h5.68l2.84-8.58h10.74l2.84,8.58h5.68l-11.33-32.58h-5.09Zm-1.21,19.06l3.74-11.39,3.74,11.39h-7.48Z"/>
    <path class="cls-1" d="M249.74,168.46c-.82,.03-1.62,.17-2.4,.43l-31.34,9.46c-2.52,.68-5.11,1.05-7.72,1.13h-43.4c-4.53-.05-8.28,3.48-8.51,8h-8.89c-2.16-.04-3.96,1.67-4,3.84,0,.01,0,.02,0,.03v29c.03,2.17,1.82,3.9,3.99,3.87h.01s8.88,0,8.88,0c.2,4.55,3.97,8.11,8.52,8.06h1.43v17.87c.03,1.86,1.55,3.34,3.41,3.32h10.44c1.86,.03,3.38-1.45,3.41-3.31h0v-17.85h24.71c2.61,.08,5.21,.45,7.74,1.12l31.37,9.32c.77,.24,1.57,.36,2.37,.36,3.87,.07,7.05-3.01,7.12-6.88,0-.1,0-.21,0-.31v-60.22c.13-3.86-2.89-7.1-6.75-7.24-.13,0-.26,0-.39,0Zm-93.43,48h-7v-21.26h7v21.26Zm21.4,30.35h-5.62v-14.5h5.62v14.5Zm19.53-22.29h-32.4c-.31,0-.55-.25-.57-.55v-36.19c.01-.31,.26-.55,.57-.56h32.4v37.3Zm12.14,0h-5.32v-37.3h5.32v37.3Zm40.5,6.49c-.03,1.7-1.44,3.05-3.14,3.02-.29,0-.58-.05-.86-.14l-27.58-7.89c-.62-.18-1.34-.36-2.1-.52v-39.21c.76-.16,1.49-.34,2.11-.53l27.6-8.05c1.62-.51,3.34,.38,3.86,2,.09,.28,.14,.58,.14,.87l-.03,50.45Z"/>
    <path class="cls-1" d="M383.13,197.63c-6.18-2.19-12.92-2.29-19.16-.26-2.06-19.39-18.34-34.58-38-34.58h-.26c-21,.14-38.05,17.64-37.91,39,.04,9.06,3.22,17.82,9,24.79,3.27,4.11,7.08,7.76,11.33,10.85l.23,.17c2.3,1.8,20.34,14.14,21.11,14.67,.51,.35,1.12,.54,1.74,.54,.44,0,.87-.09,1.27-.28,.99-.45,1.67-1.37,1.82-2.44l1.84-13.24c4.19-1.23,8.17-3.06,11.84-5.43,1.73,6.05,6.66,10.58,9.79,13l-6.23,9.93c-.72,1.14-.64,2.61,.19,3.67,.58,.76,1.48,1.2,2.44,1.2,.34,0,.68-.07,1-.19l23.17-8.34s2.92-1.12,3.42-1.33c9.5-3.89,14.93-8.73,17.63-15.74,2.54-6.98,2.23-14.67-.87-21.42-2.98-6.71-8.52-11.96-15.39-14.57Zm-50.24,33.56c-1.33,.25-2.35,1.33-2.53,2.67l-1.44,10.33c-6.24-4.29-15.24-10.5-16.66-11.6l-.23-.18c-3.9-2.81-7.4-6.15-10.38-9.93-4.85-5.83-7.52-13.16-7.57-20.74-.11-17.87,14.12-32.5,31.72-32.62h.2c17.49,0,31.81,14.44,31.93,32.17,.07,24.89-24.02,29.71-25.04,29.9Zm60.81,.14c-1.43,3.71-4.23,8-14.14,12.12l-3.23,1.25-14.57,5.3,3-4.78c.94-1.49,.49-3.45-.99-4.39-.03-.02-.06-.04-.09-.05-.1-.06-10-6-10-13.7h0c6.34-6.05,10.08-14.33,10.41-23.09,.3-.02,.6-.08,.89-.19,5.15-1.91,10.81-1.96,16-.15,11.06,4.24,16.71,16.53,12.72,27.68Z"/>
    <path class="cls-1" d="M372.73,210.14l-8.07,24.57h4l2-6.47h7.62l2,6.47h4l-8.07-24.57h-3.48Zm-.86,14.37l2.65-8.59,2.66,8.59h-5.31Z"/>
    <path class="cls-1" d="M341.33,200.17c0-12.53-6.93-19.52-15.73-19.52s-15.72,7-15.72,19.52,6.94,19.51,15.72,19.51c2.85,.03,5.65-.77,8.06-2.3l4.64,4.7,3.42-4.12-4.2-4.28c2.39-3.29,3.81-7.83,3.81-13.51Zm-7.91,9.34l-3.42-3.51-3.46,4.17,3,3.08c-1.22,.58-2.56,.86-3.91,.83-6.2,0-10-5.27-10-13.87s3.76-13.88,10-13.88,10,5.27,10,13.88c.11,3.24-.65,6.46-2.21,9.3h0Z"/>
    <path class="cls-1" d="M545.22,186.44c-2.53-7.84-9.84-13.15-18.08-13.13-1.83,0-3.66,.26-5.42,.78-5.58,1.61-10.09,5.72-12.21,11.12l-48.32-7.91c-1.53-7.83-9.12-12.94-16.95-11.41-.45,.09-.9,.2-1.35,.33-7.45,2.08-11.79,9.81-9.71,17.25,.02,.07,.04,.14,.06,.22,1.77,5.53,6.7,9.46,12.49,9.95l6.07,31.46c-6.8,3.8-10.05,11.82-7.8,19.28,2.29,7.14,8.94,11.97,16.44,11.95,1.67,0,3.33-.24,4.93-.71,8.8-2.32,14.05-11.34,11.72-20.14-.22-.83-.5-1.63-.84-2.42l38.58-27.44c4.91,4.16,11.59,5.57,17.77,3.75,9.76-2.75,15.45-12.88,12.7-22.65-.03-.09-.05-.19-.08-.28Zm-96.08,.14c-.69,.21-1.41,.31-2.13,.31-3.23,0-6.1-2.08-7.09-5.16-1.13-3.82,1.05-7.83,4.86-8.96,.05-.01,.09-.03,.14-.04,.69-.2,1.41-.31,2.13-.31,3.23,0,6.1,2.08,7.09,5.16,1.13,3.82-1.05,7.83-4.86,8.96-.05,.01-.09,.03-.14,.04h0Zm14.19,62.52c-.95,.28-1.94,.42-2.93,.42-4.45,.01-8.39-2.86-9.75-7.09-1.57-5.24,1.42-10.77,6.66-12.33,.06-.02,.11-.03,.17-.05,.95-.28,1.94-.42,2.93-.42,4.45,0,8.39,2.86,9.76,7.09,1.56,5.25-1.43,10.77-6.68,12.33-.05,.02-.1,.03-.16,.05h0Zm8.89-21.63c-3.21-2.98-7.43-4.64-11.81-4.65-.65,0-1.29,.05-1.93,.12l-5.85-30.36c3.76-1.54,6.67-4.63,8-8.47l47.63,7.8c.02,1.73,.28,3.45,.78,5.11,.36,1.13,.83,2.23,1.39,3.27l-38.21,27.18Zm58.33-24.62c-6.23,1.84-12.8-1.61-14.81-7.79-1.82-6.12,1.66-12.57,7.79-14.39,.07-.02,.14-.04,.21-.06,1.11-.33,2.26-.49,3.42-.49,5.2-.02,9.8,3.33,11.39,8.28,1.82,6.12-1.66,12.57-7.79,14.39-.07,.02-.14,.04-.21,.06Z"/>
    <path class="cls-1" d="M724.62,59.29h14.38v45.12c-.02,2.08,1.65,3.79,3.73,3.81,0,0,0,0,0,0h22.48c2.08-.02,3.76-1.73,3.74-3.81v-27.89h17.36v27.89c-.02,2.08,1.65,3.78,3.73,3.81h22.49c2.08-.03,3.75-1.73,3.73-3.81V59.29h14.33c2.08-.02,3.76-1.73,3.74-3.81-.01-1.18-.57-2.29-1.51-3l-52.82-45.41c-1.38-1.2-3.43-1.2-4.81,0l-52.97,45.51c-1.2,1.04-1.64,2.71-1.1,4.21,.52,1.49,1.92,2.49,3.5,2.5Zm53-44.34l42.74,36.73h-7.84c-2.08,.02-3.75,1.72-3.74,3.8v45.13h-15v-27.9c.01-2.08-1.66-3.78-3.74-3.8h-24.88c-2.08,.02-3.75,1.72-3.73,3.8v27.9h-15V55.48c.02-2.08-1.65-3.78-3.73-3.8h-7.84l42.76-36.73Z"/>
    <path class="cls-1" d="M344.54,.5c-31.31,0-56.7,25.38-56.71,56.69,0,31.31,25.38,56.7,56.69,56.71s56.7-25.38,56.71-56.69h0c-.03-31.31-25.39-56.67-56.69-56.71Zm0,106.8c-27.67,0-50.11-22.43-50.12-50.1s22.43-50.11,50.1-50.12,50.11,22.43,50.12,50.1v.02c-.03,27.66-22.44,50.07-50.1,50.1Z"/>
    <path class="cls-1" d="M360.13,48.18h3.44c.87,0,1.58-.71,1.58-1.58-.02-5.92-4.82-10.72-10.74-10.74h-6.57v-3.86c-.1-1.82-1.66-3.21-3.48-3.11-1.68,.09-3.02,1.43-3.11,3.11v3.86h-6.58c-5.93,0-10.73,4.8-10.73,10.73h0v3.17c0,5.92,4.79,10.72,10.71,10.73,0,0,.01,0,.02,0h19.74c2.29,0,4.14,1.85,4.14,4.14h0v3.16c0,2.29-1.84,4.14-4.13,4.15,0,0,0,0-.01,0h-19.74c-2.29,0-4.14-1.85-4.14-4.14h0c0-.86-.67-1.56-1.53-1.59h-3.44c-.87,0-1.57,.7-1.57,1.57,0,0,0,0,0,.01h0c.02,5.92,4.81,10.71,10.73,10.73h6.58v3.86c-.1,1.82,1.29,3.38,3.11,3.48,1.82,.1,3.38-1.29,3.48-3.11,0-.12,0-.24,0-.36v-3.85h6.57c5.91-.02,10.69-4.82,10.69-10.73v-3.17c-.02-5.92-4.82-10.71-10.74-10.73h-19.74c-2.29,0-4.14-1.85-4.14-4.14h0v-3.16c0-2.29,1.84-4.14,4.13-4.15,0,0,0,0,.01,0h19.74c2.29,0,4.14,1.85,4.14,4.14h0c0,.88,.71,1.59,1.58,1.59Z"/>
    <path class="cls-1" d="M113.55,47.45l-.4-2.31-9.44-1.36c-1-3.48-2.39-6.83-4.14-10l5.72-7.65-1.35-1.91c-1.89-2.67-4-5.17-6.31-7.48-2.3-2.31-4.81-4.42-7.48-6.3l-1.91-1.34-1.87,1.4h0c-.44,.28-1.69,1.22-5.8,4.29-3.17-1.75-6.52-3.14-10-4.14l-1.33-9.41-2.3-.41c-6.45-1.11-13.05-1.11-19.5,0l-2.3,.41-1.36,9.44c-3.48,.99-6.84,2.38-10,4.14l-5.78-4.32-1.86-1.4-1.91,1.35c-5.35,3.77-10.01,8.43-13.78,13.78l-1.35,1.91,5.71,7.65c-1.74,3.17-3.13,6.52-4.13,10l-9.45,1.35-.4,2.31c-1.11,6.45-1.11,13.04,0,19.49l.4,2.3,9.45,1.37c1,3.48,2.39,6.83,4.14,10l-5.72,7.63,1.35,1.92c3.77,5.35,8.43,10.01,13.78,13.78l1.91,1.35,7.65-5.72c3.17,1.75,6.52,3.14,10,4.13l1.36,9.46,2.31,.4c6.45,1.11,13.04,1.11,19.49,0l2.3-.4,1.37-9.45c3.48-1,6.83-2.4,10-4.16,1.35,1.06,3.3,2.52,5.74,4.34l1.87,1.4,1.91-1.35c5.35-3.78,10.01-8.44,13.79-13.78l1.34-1.92-5.7-7.64c1.75-3.17,3.14-6.52,4.13-10l9.45-1.37,.4-2.3c1.12-6.45,1.12-13.04,0-19.49h0Zm-6,16.11c-8.39,1.22-9.76,1.45-9.67,3.89-1,4.02-2.6,7.87-4.74,11.42-1.54,1.67-1.08,2.44,4.15,9.45-1.31,1.67-2.71,3.27-4.21,4.77-1.5,1.5-3.09,2.91-4.77,4.21l-7.31-5.47-1.87,1.18c-3.66,2.27-7.65,3.96-11.83,5-2.28,.14-2.49,1-3.76,9.62-4.22,.52-8.48,.52-12.7,0l-1.31-9-2.12-.62c-4.21-1-8.23-2.65-11.93-4.89-1.73-1.43-2.34-1.08-9.4,4.18-1.68-1.3-3.27-2.71-4.77-4.21-1.5-1.5-2.91-3.09-4.21-4.77,5.14-6.9,5.29-7.27,4.32-9.18-2.23-3.62-3.89-7.57-4.92-11.69,.1-2.44-1.28-2.67-9.66-3.89-.53-4.22-.53-8.49,0-12.71,8.39-1.22,9.76-1.46,9.66-3.89,1.03-4.12,2.69-8.07,4.92-11.69l1.14-1.87-5.46-7.31c2.61-3.36,5.64-6.39,9-9,6.9,5.14,7.27,5.29,9.18,4.32,3.63-2.23,7.58-3.88,11.72-4.9,2.42,.08,2.67-1.29,3.89-9.66,4.22-.52,8.48-.52,12.7,0,1.23,8.43,1.43,9.59,3.79,9.64,4.08,1,7.99,2.62,11.58,4.8,1.72,1.43,2.44,1,9.4-4.18,3.36,2.61,6.39,5.64,9,9-5.22,6.9-5.36,7.25-4.36,9.16,2.22,3.64,3.87,7.6,4.89,11.74-.1,2.44,1.27,2.67,9.66,3.89,.52,4.22,.52,8.49,0,12.71v-.05Z"/>
    <path class="cls-1" d="M57.19,25.44c-17.54,.03-31.74,14.27-31.71,31.81,.03,17.54,14.27,31.74,31.81,31.71,17.52-.03,31.72-14.24,31.71-31.77-.02-17.55-14.26-31.76-31.81-31.75Zm0,56.52c-13.67-.03-24.74-11.14-24.71-24.81,.03-13.67,11.14-24.74,24.81-24.71,13.65,.03,24.7,11.1,24.71,24.75,.01,13.69-11.08,24.8-24.77,24.81-.01,0-.03,0-.04,0v-.04Z"/>
    <path class="cls-1" d="M57.19,40.14c-9.42,0-17.06,7.64-17.06,17.06,0,9.42,7.64,17.06,17.06,17.06,9.42,0,17.06-7.64,17.06-17.06,0-.02,0-.04,0-.06-.04-9.4-7.66-16.99-17.06-17Zm0,27.11c-5.56,0-10.06-4.5-10.06-10.06,0-5.56,4.5-10.06,10.06-10.06,5.56,0,10.06,4.5,10.06,10.06,0,5.55-4.51,10.05-10.06,10.06Z"/>
    <path class="cls-1" d="M446.68,113.89h85.32c1.48,.02,2.69-1.17,2.71-2.65,0,0,0,0,0-.01V11.54c-.02-1.48-1.23-2.67-2.71-2.66h-18.8V3.16c-.01-1.48-1.22-2.67-2.7-2.66,0,0,0,0-.01,0h-42.34c-1.48-.01-2.69,1.18-2.7,2.66h0v5.72h-18.77c-1.47,0-2.67,1.19-2.68,2.66V111.23c.01,1.47,1.21,2.66,2.68,2.66Zm24.32-105.29c.01-1.48,1.22-2.67,2.7-2.66,0,0,0,0,.01,0h31.29c1.48-.01,2.69,1.18,2.71,2.66v6c-.02,1.48-1.23,2.67-2.71,2.66h-31.3c-1.48,.01-2.69-1.18-2.7-2.66h0v-6Zm-21.49,8.4c.02-1.48,1.23-2.67,2.71-2.66h13.23v5.66c.01,1.48,1.22,2.67,2.7,2.66,0,0,0,0,0,0h42.34c1.48,.02,2.69-1.17,2.71-2.65,0,0,0,0,0-.01v-5.7h13.22c1.48-.01,2.69,1.18,2.7,2.66h0V108.43h-76.9c-1.48,.01-2.69-1.18-2.71-2.66V17Z"/>
    <path class="cls-1" d="M465,65.86h.92c1.47,0,2.66-1.19,2.66-2.66,0-1.47-1.19-2.66-2.66-2.66h-.92c-1.47,0-2.66,1.19-2.66,2.66,0,1.47,1.19,2.66,2.66,2.66h0Z"/>
    <path class="cls-1" d="M465,82.15h.92c1.47,0,2.66-1.19,2.66-2.66,0-1.47-1.19-2.66-2.66-2.66h-.92c-1.47,0-2.66,1.19-2.66,2.66,0,1.47,1.19,2.66,2.66,2.66h0Z"/>
    <path class="cls-1" d="M478.94,65.86h34.74c1.47,0,2.66-1.19,2.66-2.66,0-1.47-1.19-2.66-2.66-2.66h-34.74c-1.47,0-2.66,1.19-2.66,2.66,0,1.47,1.19,2.66,2.66,2.66h0Z"/>
    <path class="cls-1" d="M478.94,82.15h34.74c1.47,0,2.66-1.19,2.66-2.66,0-1.47-1.19-2.66-2.66-2.66h-34.74c-1.47,0-2.66,1.19-2.66,2.66,0,1.47,1.19,2.66,2.66,2.66h0Z"/>
    <path class="cls-1" d="M465,49.11h.92c1.47,0,2.66-1.19,2.66-2.66s-1.19-2.66-2.66-2.66h-.92c-1.47,0-2.66,1.19-2.66,2.66s1.19,2.66,2.66,2.66h0Z"/>
    <path class="cls-1" d="M478.94,49.11h34.74c1.47,0,2.66-1.19,2.66-2.66s-1.19-2.66-2.66-2.66h-34.74c-1.47,0-2.66,1.19-2.66,2.66s1.19,2.66,2.66,2.66h0Z"/>
    <path class="cls-1" d="M249.67,17.51h-99c-4,0-7.17,3.56-7.17,7.92v63.57c0,4.37,3.21,7.92,7.17,7.92h99c4,0,7.17-3.55,7.17-7.92V25.43c0-4.36-3.22-7.92-7.17-7.92Zm.48,71.49c0,.27-.21,.5-.48,.52h-99c-.27-.02-.49-.25-.48-.52V46h100l-.04,43Zm0-48.69h-100v-14.88c0-.27,.21-.5,.48-.52h99c.27,.02,.48,.25,.48,.52l.04,14.88Z"/>
    <path class="cls-1" d="M175.63,73.62h49c2.35-.23,4.07-2.32,3.84-4.66-.2-2.03-1.81-3.64-3.84-3.84h-49c-2.35,.23-4.07,2.32-3.84,4.66,.2,2.03,1.81,3.64,3.84,3.84Z"/>
    <path class="cls-1" d="M824.85,209.46c2.38-2.42,3.71-5.68,3.72-9.08v-2.11c.21-7.9-6.03-14.47-13.93-14.68s-14.47,6.03-14.68,13.93c0,.25,0,.5,0,.76v2.11c0,5.47,3.43,10.36,8.58,12.22l1.81,.66c1.02,.36,2.1,.58,3.18,.64h3.89c5.88,.01,10.64,4.78,10.64,10.66v24.44h-22.73v6.22h28.95v-30.63c0-6.43-3.66-12.29-9.43-15.13Zm-2.5-9.08c0,2.85-1.79,5.4-4.47,6.37l-1.81,.65c-.55,.2-1.13,.3-1.72,.31h-.16c-.59,0-1.17-.11-1.73-.3l-1.81-.66c-2.68-.97-4.47-3.52-4.47-6.37v-2.11c-.16-4.47,3.34-8.21,7.8-8.37s8.21,3.34,8.37,7.8c0,.19,0,.38,0,.57v2.11Z"/>
    <path class="cls-1" d="M737.75,213.93h3.89c1.09-.06,2.16-.28,3.18-.65l1.8-.65c5.15-1.86,8.59-6.74,8.59-12.22v-2.11c.21-7.9-6.03-14.47-13.93-14.68s-14.47,6.03-14.68,13.93c0,.25,0,.5,0,.76v2.11c0,3.4,1.34,6.66,3.72,9.08-5.77,2.84-9.42,8.7-9.43,15.13v30.65h29v-6.27h-22.78v-24.41c0-5.88,4.76-10.65,10.64-10.66Zm-4.93-15.66c-.16-4.47,3.34-8.21,7.8-8.37s8.21,3.34,8.37,7.8c0,.19,0,.38,0,.57v2.11c0,2.85-1.79,5.4-4.47,6.37l-1.81,.65c-.56,.2-1.14,.3-1.73,.31h-.16c-.59,0-1.17-.11-1.72-.3l-1.81-.66c-2.68-.97-4.47-3.52-4.47-6.37v-2.11Z"/>
    <path class="cls-1" d="M802.82,213.88h-.11c-.86-7.44-5.79-13.79-12.78-16.47,3.23-2.99,5.07-7.2,5.07-11.61v-2.7c.23-9.64-7.4-17.64-17.04-17.87-9.64-.23-17.64,7.4-17.87,17.04,0,.28,0,.56,0,.84v2.7c0,4.41,1.86,8.62,5.11,11.61-7.17,2.75-12.15,9.35-12.83,17h-.1v41.89h50.51v-39.39h0v-1.35l.04-1.68Zm-36.48-30.78c0-6.21,5.02-11.25,11.23-11.25,6.21,0,11.25,5.02,11.25,11.23v2.73c0,4.03-2.52,7.63-6.31,9l-2.31,.84c-.76,.27-1.56,.42-2.36,.44h-.51c-.8-.02-1.6-.17-2.36-.44l-2.31-.84c-3.79-1.37-6.31-4.97-6.32-9v-2.7Zm30.26,67h-38.08v-33.2h0v-.74c0-7.65,6.2-13.86,13.85-13.88h10.38c7.42,.01,13.52,5.87,13.83,13.29l.02,34.53Z"/>
    <path class="cls-1" d="M661.68,239c-1.92,.01-3.47,1.57-3.47,3.49v18.18h-65.36v-99.4h65.36v18.18c0,1.92,1.55,3.47,3.47,3.47s3.47-1.55,3.47-3.47h0v-21.67c0-1.92-1.55-3.49-3.47-3.5h-72.29c-1.92,0-3.48,1.57-3.47,3.49,0,0,0,0,0,.01v106.4c0,1.92,1.55,3.48,3.47,3.49h72.29c1.92-.01,3.47-1.57,3.47-3.49v-21.68c0-1.92-1.55-3.49-3.47-3.5Z"/>
    <path class="cls-1" d="M682.33,208.64l-20.14-20.28c-1.33-1.47-3.6-1.59-5.07-.27-1.47,1.33-1.59,3.6-.27,5.07,.08,.09,.17,.18,.27,.27l13.86,14h-48.47c-1.98,0-3.59,1.61-3.58,3.6,0,1.98,1.61,3.58,3.58,3.58h48.49l-13.85,14c-1.39,1.41-1.39,3.67,0,5.08,1.39,1.4,3.65,1.4,5.05,.01,0,0,0,0,.01-.01l20.14-20.29c1.31-1.28,1.33-3.39,.05-4.69-.02-.02-.04-.04-.07-.07Z"/>
    <g id="_레이어_2-2" data-name="레이어 2">
      <g id="_레이어_1-2" data-name="레이어 1-2">
        <path class="cls-1" d="M880.91,70.14c-5.52,0-10-4.48-10-10s4.48-10,10-10,10,4.48,10,10-4.48,10-10,10Zm0-14.53c-2.51,0-4.54,2.02-4.55,4.53s2.02,4.54,4.53,4.55c2.51,0,4.54-2.02,4.55-4.53h0c0-2.51-2.02-4.54-4.53-4.55Z"/>
        <path class="cls-1" d="M912,49.74c-5.52,0-10-4.48-10-10s4.48-10,10-10,10,4.48,10,10-4.48,10-10,10Zm0-14.53c-2.51,0-4.54,2.03-4.54,4.54s2.03,4.54,4.54,4.54c2.51,0,4.54-2.03,4.54-4.54h0c0-2.51-2.03-4.54-4.54-4.54Z"/>
        <path class="cls-1" d="M943.17,22.14c-5.52,0-10-4.48-10-10s4.48-10,10-10,10,4.48,10,10-4.48,10-10,10Zm0-14.54c-2.51,0-4.54,2.03-4.54,4.54s2.03,4.54,4.54,4.54c2.51,0,4.54-2.03,4.54-4.54h0c0-2.51-2.03-4.54-4.54-4.54Z"/>
        <path class="cls-1" d="M974.3,42.82c-5.52,0-10-4.48-10-10s4.48-10,10-10,10,4.48,10,10-4.48,10-10,10Zm0-14.53c-2.51,0-4.54,2.03-4.54,4.54s2.03,4.54,4.54,4.54c2.51,0,4.54-2.03,4.54-4.54h0c0-2.51-2.03-4.54-4.54-4.54Z"/>
        <rect class="cls-1" x="885.07" y="47.21" width="22.78" height="5.45" transform="translate(94.15 452.96) rotate(-29.86)"/>
        <rect class="cls-1" x="914.01" y="23.21" width="27.17" height="5.45" transform="translate(243.85 653.32) rotate(-44.14)"/>
        <rect class="cls-1" x="956" y="11.06" width="5.45" height="22.85" transform="translate(409.17 808.4) rotate(-56.38)"/>
        <path class="cls-1" d="M890.91,115.53h-20v-40h20v40Zm-14.55-5.46h9.08v-29.07h-9.08v29.07Z"/>
        <path class="cls-1" d="M922,115.53h-20V55.41h20v60.12Zm-14.54-5.46h9.09V60.86h-9.09v49.21Z"/>
        <path class="cls-1" d="M953.16,115.53h-20V30.14h20V115.53Zm-14.53-5.46h9.08V35.56h-9.08V110.07Z"/>
        <path class="cls-1" d="M984.3,115.53h-20V49.08h20V115.53Zm-14.54-5.46h9.08V54.54h-9.08v55.53Z"/>
      </g>
    </g>
    <g id="_레이어_2-2" data-name="레이어 2-2">
      <g id="_레이어_1-2-2" data-name="레이어 1-2-2">
        <path class="cls-1" d="M986.28,261.21h-103.61c-5.33,.06-9.71-4.21-9.78-9.54v-78.22c.02-1.62,1.36-2.92,2.98-2.9,0,0,.01,0,.02,0h0c1.61,0,2.94,1.27,3,2.88v78.22c-.01,2.09,1.67,3.79,3.76,3.8h97.67v-75.86c0-1.66,1.34-3,3-3s3,1.34,3,3l-.04,81.62Z"/>
        <path class="cls-1" d="M983.3,182.45h-101.16c-4.97,0-9-4.03-9-9s4.03-9,9-9h101.16v5.81h-101.16c-1.77,0-3.21,1.44-3.21,3.21,0,1.77,1.44,3.21,3.21,3.21h101.16v5.77Z"/>
        <path class="cls-1" d="M986.28,228h-22.39c-5.8,.25-10.71-4.24-10.96-10.04-.25-5.8,4.24-10.71,10.04-10.96h23.32v21Zm-22.4-15.21c-2.59-.12-4.79,1.88-4.91,4.47-.12,2.59,1.88,4.79,4.47,4.92h16.88v-9.39h-16.44Z"/>
        <path class="cls-1" d="M932.82,233.73h-17.42c-4.06,.06-7.39-3.19-7.45-7.25,0,0,0-.01,0-.02h0v-2.32h6v2.32c.01,.81,.67,1.45,1.48,1.44,0,0,0,0,.01,0h17.38c.81,.01,1.47-.63,1.48-1.44h0v-4.66c-.02-.8-.68-1.45-1.48-1.44h-17.42c-4.06,.05-7.4-3.2-7.45-7.26v-4.64c.06-4.06,3.39-7.3,7.45-7.25h17.42c4.05-.04,7.37,3.2,7.44,7.25v2.3h-6v-2.3c-.02-.8-.68-1.45-1.48-1.44h-17.38c-.81-.02-1.49,.62-1.51,1.43h0v4.69c.01,.81,.67,1.45,1.48,1.44h17.45c4.05-.04,7.38,3.21,7.44,7.26v4.61c-.04,4.06-3.37,7.32-7.44,7.28,0,0,0,0,0,0h0Z"/>
        <rect class="cls-1" x="921.13" y="196.3" width="5.96" height="7.76"/>
        <rect class="cls-1" x="921.13" y="230.83" width="5.96" height="7.76"/>
      </g>
    </g>
  </g>
</svg>