<?xml version="1.0" encoding="UTF-8"?>
<svg id="_레이어_2" data-name="레이어 2" xmlns="http://www.w3.org/2000/svg" viewBox="0 0 233.89 270.07">
  <defs>
    <style>
      .cls-1 {
        fill: #fff;
      }

      .cls-2 {
        fill: #22348c;
      }

      .cls-3 {
        fill: #116eb5;
      }

      .cls-4 {
        fill: #0d3a94;
      }
    </style>
  </defs>
  <g id="_레이어_1-2" data-name="레이어 1">
    <g>
      <polygon class="cls-3" points="117.15 .11 117.15 134.84 117.06 134.89 116.81 135.04 59.12 101.73 58.9 101.61 0 67.61 0 67.52 116.96 0 117.15 .11"/>
      <polygon class="cls-2" points="233.84 67.48 117.15 134.85 117.15 .11 233.84 67.48"/>
      <polygon class="cls-2" points="147.25 152.61 173.75 167.91 173.75 237.27 117.15 269.96 117.15 169.9 117.18 169.91 147.25 152.61"/>
      <polygon class="cls-2" points="233.82 202.6 204.07 219.76 204.07 185.44 233.82 202.6"/>
      <polygon class="cls-3" points="0 202.49 31.38 184.37 31.38 220.67 0 202.55 0 202.49"/>
      <polygon class="cls-3" points="117.15 169.9 117.15 269.96 116.95 270.07 61.71 238.19 61.71 166.85 86.67 152.44 117.15 169.9"/>
      <polygon class="cls-2" points="0 67.61 58.9 101.61 31.38 85.86 31.38 184.37 0 202.49 0 67.61"/>
      <polygon class="cls-2" points="86.67 152.44 61.71 166.85 61.71 138.16 86.67 152.44"/>
      <polygon class="cls-3" points="233.89 67.52 233.89 202.55 233.82 202.6 204.07 185.42 204.07 84.92 117.15 134.95 117.15 134.84 233.85 67.48 233.89 67.52"/>
      <polygon class="cls-3" points="147.25 152.61 173.75 137.36 173.75 167.91 147.25 152.61"/>
      <polygon class="cls-4" points="117.15 134.84 117.15 135.23 116.81 135.04 117.06 134.89 117.15 134.84"/>
      <polygon class="cls-3" points="117.15 134.95 117.15 135.23 116.81 135.04 59.12 101.73 117.06 134.89 117.15 134.95"/>
      <polygon class="cls-1" points="37.32 225.02 37.59 96.56 55.82 106.99 56.13 107.17 113.87 140.22 116.93 142.12 120.24 140.33 197.88 95.64 197.6 224.11 179.68 234.46 179.95 126.64 144.16 147.23 117.17 162.76 89.75 147.05 55.51 127.46 55.24 235.37 37.32 225.02"/>
    </g>
  </g>
</svg>