<?xml version="1.0" encoding="UTF-8"?>
<svg id="_레이어_2" data-name="레이어 2" xmlns="http://www.w3.org/2000/svg" viewBox="0 0 474.65 420.45">
  <defs>
    <style>
      .cls-1 {
        fill: #fff;
      }

      .cls-2 {
        fill: #22348c;
      }

      .cls-3 {
        fill: #116eb5;
      }

      .cls-4 {
        fill: #1a1a1a;
      }

      .cls-5 {
        fill: #0d3a94;
      }
    </style>
  </defs>
  <g id="_레이어_1-2" data-name="레이어 1">
    <g>
      <path class="cls-2" d="M90.62,339.63v80.02h-19.49v-47.99l-17.9,47.99h-15.73l-18.01-48.1v48.1H0v-80.02H23.03l22.46,55.4,22.23-55.4h22.91Z"/>
      <path class="cls-4" d="M117.87,417.6c-4.64-1.9-8.34-4.71-11.11-8.44-2.77-3.72-4.24-8.21-4.39-13.45h20.75c.3,2.96,1.33,5.23,3.08,6.78,1.75,1.56,4.03,2.34,6.84,2.34s5.17-.67,6.84-2c1.67-1.33,2.51-3.17,2.51-5.53,0-1.97-.67-3.61-2-4.9-1.33-1.29-2.96-2.35-4.9-3.19-1.94-.83-4.69-1.78-8.26-2.85-5.17-1.6-9.39-3.19-12.65-4.79-3.27-1.6-6.08-3.95-8.43-7.07-2.36-3.12-3.53-7.18-3.53-12.2,0-7.45,2.7-13.28,8.09-17.5,5.4-4.22,12.43-6.33,21.09-6.33s15.92,2.11,21.32,6.33c5.39,4.22,8.28,10.09,8.66,17.61h-21.09c-.15-2.58-1.1-4.62-2.85-6.1-1.75-1.48-3.99-2.22-6.73-2.22-2.36,0-4.26,.63-5.7,1.88-1.44,1.25-2.17,3.06-2.17,5.41,0,2.58,1.21,4.6,3.65,6.04,2.43,1.44,6.23,3,11.4,4.67,5.17,1.75,9.36,3.42,12.6,5.02,3.23,1.6,6.02,3.91,8.38,6.95,2.35,3.04,3.53,6.95,3.53,11.74s-1.16,8.7-3.48,12.43c-2.32,3.72-5.68,6.69-10.09,8.89-4.41,2.2-9.61,3.31-15.62,3.31s-11.1-.95-15.73-2.85Z"/>
      <path class="cls-4" d="M232.31,339.63v15.62h-21.2v64.4h-19.49v-64.4h-21.2v-15.62h61.9Z"/>
      <path class="cls-4" d="M259.27,415.21c-6.27-3.5-11.25-8.38-14.93-14.65-3.69-6.27-5.53-13.32-5.53-21.14s1.84-14.86,5.53-21.09c3.69-6.23,8.66-11.09,14.93-14.59,6.27-3.49,13.17-5.24,20.69-5.24s14.42,1.75,20.69,5.24c6.27,3.5,11.21,8.36,14.82,14.59,3.61,6.23,5.41,13.26,5.41,21.09s-1.82,14.87-5.47,21.14c-3.65,6.27-8.59,11.15-14.82,14.65-6.23,3.5-13.11,5.24-20.63,5.24s-14.42-1.75-20.69-5.24Zm36.02-18.92c3.84-4.26,5.76-9.88,5.76-16.87s-1.92-12.71-5.76-16.93c-3.84-4.22-8.95-6.33-15.33-6.33s-11.61,2.09-15.45,6.27c-3.84,4.18-5.76,9.84-5.76,16.98s1.92,12.71,5.76,16.93c3.84,4.22,8.99,6.33,15.45,6.33s11.49-2.13,15.33-6.38Z"/>
      <path class="cls-4" d="M372.51,419.65l-16.64-30.21h-4.67v30.21h-19.49v-80.02h32.72c6.31,0,11.68,1.1,16.13,3.31,4.45,2.2,7.77,5.23,9.97,9.06,2.2,3.84,3.31,8.11,3.31,12.82,0,5.32-1.5,10.07-4.5,14.25-3,4.18-7.43,7.14-13.28,8.89l18.47,31.69h-22Zm-21.32-44h12.08c3.57,0,6.25-.87,8.04-2.62,1.78-1.75,2.68-4.22,2.68-7.41s-.89-5.43-2.68-7.18c-1.79-1.75-4.46-2.62-8.04-2.62h-12.08v19.83Z"/>
      <path class="cls-4" d="M474.65,339.63l-27.7,53.58v26.45h-19.49v-26.45l-27.7-53.58h22.11l15.5,33.51,15.39-33.51h21.89Z"/>
    </g>
    <g>
      <polygon class="cls-3" points="237.52 .11 237.52 134.84 237.44 134.89 237.19 135.04 179.5 101.73 179.27 101.61 120.38 67.61 120.38 67.52 237.34 0 237.52 .11"/>
      <polygon class="cls-2" points="354.22 67.48 237.52 134.85 237.52 .11 354.22 67.48"/>
      <polygon class="cls-2" points="267.63 152.61 294.12 167.91 294.12 237.27 237.52 269.96 237.52 169.9 237.56 169.91 267.63 152.61"/>
      <polygon class="cls-2" points="354.2 202.6 324.45 219.76 324.45 185.44 354.2 202.6"/>
      <polygon class="cls-3" points="120.38 202.49 151.76 184.37 151.76 220.67 120.38 202.55 120.38 202.49"/>
      <polygon class="cls-3" points="237.52 169.9 237.52 269.96 237.32 270.07 182.09 238.19 182.09 166.85 207.05 152.44 237.52 169.9"/>
      <polygon class="cls-2" points="120.38 67.61 179.27 101.61 151.76 85.86 151.76 184.37 120.38 202.49 120.38 67.61"/>
      <polygon class="cls-2" points="207.05 152.44 182.09 166.85 182.09 138.16 207.05 152.44"/>
      <polygon class="cls-3" points="354.27 67.52 354.27 202.55 354.2 202.6 324.45 185.42 324.45 84.92 237.52 134.95 237.52 134.84 354.22 67.48 354.27 67.52"/>
      <polygon class="cls-3" points="267.63 152.61 294.12 137.36 294.12 167.91 267.63 152.61"/>
      <polygon class="cls-5" points="237.52 134.84 237.52 135.23 237.19 135.04 237.44 134.89 237.52 134.84"/>
      <polygon class="cls-3" points="237.52 134.95 237.52 135.23 237.19 135.04 179.5 101.73 237.44 134.89 237.52 134.95"/>
      <polygon class="cls-1" points="157.7 225.02 157.97 96.56 176.19 106.99 176.51 107.17 234.25 140.22 237.31 142.12 240.62 140.33 318.25 95.64 317.98 224.11 300.06 234.46 300.33 126.64 264.53 147.23 237.55 162.76 210.13 147.05 175.89 127.46 175.62 235.37 157.7 225.02"/>
    </g>
  </g>
</svg>